<?xml version="1.0" encoding="UTF-8"?>
<svg version="1.1" xmlns="http://www.w3.org/2000/svg" width="512" height="512">
<path d="M0 0 C0.99883894 -0.0103245 1.99767787 -0.020649 3.02678466 -0.03128636 C6.35977199 -0.06188181 9.69246362 -0.07121797 13.02557373 -0.08035278 C15.42105423 -0.09752226 17.81652673 -0.11584173 20.21199036 -0.13522339 C27.38707726 -0.18802942 34.56215496 -0.21536288 41.73738539 -0.23807448 C45.1229029 -0.24944512 48.5084067 -0.26396221 51.89391327 -0.27817154 C63.15757511 -0.32435725 74.42122531 -0.36364674 85.68497086 -0.38154411 C88.60237891 -0.3862533 91.51978694 -0.39097309 94.43719482 -0.39578247 C95.16222371 -0.39697138 95.88725259 -0.39816029 96.63425204 -0.39938523 C108.37892197 -0.41993276 120.12280438 -0.48806958 131.8671414 -0.57630335 C143.94504528 -0.6663006 156.02255074 -0.71465381 168.10079265 -0.72220051 C174.87445104 -0.7274348 181.64699439 -0.75046735 188.42032623 -0.81994247 C194.79357554 -0.88307957 201.16479328 -0.89357104 207.53826714 -0.8642807 C209.87150667 -0.86252248 212.20484995 -0.87944594 214.5377903 -0.91685104 C233.98842395 -1.21093885 233.98842395 -1.21093885 240.52783561 4.28122795 C242.81755544 6.52023024 244.82969765 8.92709898 246.81756592 11.43478394 C248.04505616 12.67609292 249.28534776 13.90527554 250.55194092 15.10665894 C251.55925232 16.130636 252.56453211 17.15661641 253.56756592 18.18478394 C256.85213233 21.51194419 260.11707498 24.79151236 263.69256592 27.80978394 C268.47358855 31.85839459 272.80543733 36.37281933 277.18817139 40.84249878 C280.26425642 43.96084443 283.37661977 46.96647491 286.69647217 49.82540894 C291.42424221 53.90435943 295.83952779 58.27286214 300.25506592 62.68478394 C301.06910889 63.48658081 301.88315186 64.28837769 302.72186279 65.11447144 C303.49465576 65.88533081 304.26744873 66.65619019 305.06365967 67.45040894 C306.11057983 68.49116577 306.11057983 68.49116577 307.1786499 69.552948 C310.11782282 72.92776475 309.94405037 76.08082824 309.94899368 80.36980629 C309.95283483 81.61728476 309.95667597 82.86476323 309.96063352 84.15004408 C309.95985322 85.54204605 309.95897443 86.93404796 309.95800781 88.3260498 C309.96059072 89.79890406 309.96360368 91.27175761 309.96701121 92.74461019 C309.97509339 96.80222355 309.97687146 100.85981924 309.97760868 104.9174397 C309.97945716 109.28979293 309.98700353 113.66213695 309.9937439 118.03448486 C310.00733715 127.60072087 310.01335369 137.16695268 310.01775455 146.73319674 C310.02051572 152.70550787 310.02475289 158.67781738 310.02925873 164.65012741 C310.04145349 181.18244386 310.05175187 197.714759 310.05513382 214.24707985 C310.05535339 215.30561526 310.05557295 216.36415066 310.05579917 217.4547629 C310.05601745 218.51585084 310.05623573 219.57693879 310.05646062 220.67018092 C310.05690409 222.82039364 310.05735065 224.97060637 310.05780029 227.12081909 C310.05802172 228.18740188 310.05824315 229.25398467 310.05847129 230.35288815 C310.06241848 247.63166205 310.07986916 264.91039376 310.10315982 282.18915136 C310.12687354 299.92483611 310.13933571 317.66049968 310.14050174 335.39620054 C310.14141857 345.35574666 310.14717285 355.31523784 310.16532135 365.27476883 C310.18072272 373.75673155 310.18584264 382.23862234 310.17758325 390.72059639 C310.17367666 395.04775579 310.17460669 399.37477035 310.18864059 403.70191193 C310.20137917 407.66595373 310.20018243 411.62974185 310.18804988 415.5937833 C310.18609279 417.02520606 310.18917193 418.45664679 310.19789425 419.88804431 C310.25126867 429.24204081 310.15629533 438.4619627 303.63006592 445.80978394 C303.10026123 446.43626831 302.57045654 447.06275269 302.02459717 447.70822144 C295.21653547 453.03417413 287.70673627 452.86577427 279.45100403 452.82246399 C278.21728591 452.82784953 276.98356779 452.83323506 275.71246427 452.8387838 C272.30446895 452.85058223 268.89696494 452.84900771 265.48898947 452.84161699 C261.8072374 452.83687671 258.1255372 452.84940272 254.44380188 452.8596344 C247.23751934 452.87681069 240.03132404 452.87766488 232.82502634 452.8724215 C226.96668477 452.86837653 221.10836895 452.86982723 215.25002861 452.87516975 C214.41555194 452.87591818 213.58107527 452.8766666 212.72131143 452.8774377 C211.02596128 452.87896921 209.33061113 452.88050756 207.63526099 452.88205267 C191.74486125 452.89577337 175.85451077 452.89034295 159.96411216 452.87886745 C145.43390038 452.86893461 130.90381593 452.88187738 116.3736238 452.90580165 C101.44471999 452.93019674 86.51587548 452.93979957 71.58695215 452.93314892 C63.20919144 452.92965773 54.83152866 452.9318822 46.45378304 452.94939995 C39.3223639 452.96412702 32.19111167 452.96475077 25.05969579 452.94732904 C21.42306716 452.93882092 17.78673662 452.93666457 14.1501236 452.95198059 C10.20363391 452.96839561 6.25760335 452.95367078 2.31111145 452.93598938 C1.1677176 452.94559439 0.02432374 452.95519939 -1.15371841 452.96509546 C-9.02273551 452.89257818 -15.27299051 451.54145362 -21.52227783 446.57540894 C-22.31311768 445.63954956 -22.31311768 445.63954956 -23.11993408 444.68478394 C-23.66520752 444.07119019 -24.21048096 443.45759644 -24.77227783 442.82540894 C-27.99968281 437.35401878 -28.43257037 431.26716267 -28.43690968 425.04118443 C-28.44011615 424.33904008 -28.44332263 423.63689574 -28.44662628 422.91347429 C-28.45489312 420.57296369 -28.44901375 418.2327112 -28.44313049 415.89219666 C-28.44615269 414.19228699 -28.45004251 412.49237869 -28.45472306 410.79247278 C-28.46500293 406.13045119 -28.46282126 401.46850651 -28.45854247 396.80647862 C-28.45607525 391.77503513 -28.46508931 386.74361017 -28.47257996 381.71217346 C-28.48532876 371.85892667 -28.48712045 362.00570714 -28.48477969 352.15245349 C-28.4829967 344.1440412 -28.48474577 336.13563718 -28.48900414 328.12722588 C-28.48959932 326.98745947 -28.49019451 325.84769307 -28.49080774 324.67338828 C-28.49201949 322.35796814 -28.49323362 320.04254799 -28.49445011 317.72712784 C-28.5053262 296.01387643 -28.50316274 274.30064055 -28.49706527 252.58738827 C-28.49189515 232.72232158 -28.50315394 212.85730392 -28.52216349 192.99224693 C-28.54153355 172.59409172 -28.54979941 152.19595971 -28.54604024 131.79779524 C-28.54412704 120.34603127 -28.54662734 108.89430904 -28.56075478 97.44255257 C-28.57265887 87.69442513 -28.5740843 77.94636512 -28.56196461 68.19823677 C-28.55606934 63.22499297 -28.55499449 58.25187257 -28.56696701 53.27863693 C-28.57780317 48.72451525 -28.57474945 44.17062034 -28.56070533 39.61650937 C-28.55805217 37.97056977 -28.56044433 36.32461252 -28.56844119 34.6786902 C-28.6593771 14.56321859 -28.6593771 14.56321859 -21.99493408 7.05978394 C-21.46512939 6.43329956 -20.93532471 5.80681519 -20.38946533 5.16134644 C-14.2245943 0.33856237 -7.50450407 -0.01005606 0 0 Z M-10.18243408 19.43478394 C-11.33081022 22.87991234 -11.30899668 25.52903176 -11.31106853 29.16464138 C-11.31282157 29.85576099 -11.31457461 30.5468806 -11.31638077 31.25894323 C-11.32106008 33.59194479 -11.31857033 35.92488456 -11.31614685 38.25788879 C-11.31801385 39.94054626 -11.3203141 41.62320329 -11.32301217 43.30585963 C-11.32915027 47.94320617 -11.32899423 52.58053474 -11.3278178 57.21788442 C-11.3276143 62.21386774 -11.33312765 67.2098452 -11.33787537 72.20582581 C-11.34619331 81.99858398 -11.34893072 91.79133614 -11.34948774 101.58409756 C-11.34996233 109.54070603 -11.3520142 117.49731252 -11.35518837 125.45392036 C-11.36399779 147.99364586 -11.36860726 170.53336659 -11.3678579 193.07309382 C-11.36781794 194.28904092 -11.36777798 195.50498801 -11.36773682 196.75778198 C-11.36769594 197.97520706 -11.36765506 199.19263214 -11.36761294 200.44694889 C-11.3672063 220.18636937 -11.37677941 239.92577078 -11.39087518 259.66518574 C-11.40522187 279.91512361 -11.41214632 300.16505217 -11.41128141 320.41499525 C-11.41094886 331.79121268 -11.41372105 343.16741011 -11.42445946 354.54362297 C-11.433542 364.22795514 -11.43575825 373.91225826 -11.42895003 383.59659284 C-11.42567352 388.54080513 -11.4256687 393.48496163 -11.43430328 398.4291687 C-11.44211946 402.95110942 -11.44078729 407.47294965 -11.43201915 411.99488778 C-11.43047333 413.63483195 -11.43234063 415.27478343 -11.43787923 416.91471898 C-11.44488805 419.13629782 -11.43968644 421.35751909 -11.43132305 423.57908535 C-11.43154042 424.81534741 -11.43175779 426.05160947 -11.43198174 427.32533401 C-11.19296056 430.30362045 -10.84645139 431.98397565 -9.18243408 434.43478394 C-6.71083182 435.67058506 -5.08731567 435.56124623 -2.32197666 435.56341839 C-1.28875957 435.56664283 -0.25554248 435.56986728 0.80898422 435.57318944 C1.95283287 435.57164084 3.09668153 435.57009223 4.27519226 435.5684967 C6.08767774 435.57189504 6.08767774 435.57189504 7.93677908 435.57536203 C11.30135201 435.58061488 14.6658717 435.58134391 18.03044498 435.58016765 C21.65490854 435.57996419 25.27936402 435.58547717 28.90382385 435.59022522 C36.00862819 435.59854402 43.11342424 435.60128061 50.21823304 435.6018376 C55.99094952 435.60231216 61.76366325 435.60436388 67.53637886 435.60753822 C83.88927537 435.61634798 100.24216531 435.62095707 116.59506422 435.62020775 C117.47729593 435.62016779 118.35952764 435.62012784 119.26849365 435.62008667 C120.15179769 435.62004579 121.03510173 435.62000491 121.94517256 435.61996279 C136.2663861 435.61955618 150.58757337 435.62912867 164.90877932 435.64322504 C179.60015022 435.65757211 194.29150829 435.66449615 208.98288637 435.66363126 C217.2364399 435.66329872 225.48996588 435.66607061 233.74351311 435.67680931 C240.76980311 435.68589237 247.79605307 435.6881077 254.82234638 435.68129989 C258.40950697 435.67802359 261.99659066 435.67801773 265.58374405 435.68665314 C269.46685078 435.69590515 273.34984382 435.68977114 277.23295593 435.68202209 C278.94538283 435.68973744 278.94538283 435.68973744 280.69240421 435.69760865 C281.72822905 435.69300985 282.76405389 435.68841106 283.83126736 435.6836729 C284.72822179 435.68389027 285.62517623 435.68410764 286.5493111 435.6843316 C289.09843881 435.58003368 289.09843881 435.58003368 291.81756592 433.43478394 C292.87865285 430.25152314 292.94182336 428.00661101 292.94061375 424.66203022 C292.9426048 423.45080221 292.94459584 422.23957419 292.94664723 420.9916423 C292.94379401 419.64060212 292.94084841 418.28956214 292.93782043 416.93852234 C292.93825627 415.50875205 292.93913141 414.07898184 292.9404096 412.64921206 C292.94265211 408.71103542 292.93863659 404.77288582 292.93363154 400.83471262 C292.92932375 396.59137193 292.9307737 392.34803282 292.93153381 388.10469055 C292.93205884 380.74972483 292.92891427 373.39476796 292.92329597 366.03980446 C292.91517809 355.40568685 292.91256546 344.77157353 292.91130798 334.13745316 C292.90911792 316.88540539 292.90245906 299.63336234 292.89300537 282.38131714 C292.88383008 265.61992415 292.87674982 248.85853244 292.87249756 232.09713745 C292.87223484 231.06442515 292.87197211 230.03171285 292.87170143 228.96770624 C292.87039641 223.7870295 292.8691327 218.60635275 292.86788952 213.42567599 C292.85751833 170.4287087 292.83990125 127.43174656 292.81756592 84.43478394 C292.18387085 84.42891769 291.55017578 84.42305145 290.89727783 84.41700745 C284.27797078 84.35287578 277.65914104 84.26840535 271.04022217 84.17233276 C268.57283843 84.1391603 266.10538021 84.11110468 263.63787842 84.08834839 C260.08286926 84.05466181 256.52853794 84.00233692 252.97381592 83.94650269 C251.87766968 83.94011276 250.78152344 83.93372284 249.65216064 83.92713928 C242.54041397 83.79184428 236.29157451 83.27330315 230.57537842 78.60275269 C230.03655029 77.949198 229.49772217 77.29564331 228.94256592 76.62228394 C228.38826904 75.97646362 227.83397217 75.33064331 227.26287842 74.66525269 C223.29242702 68.53788039 223.48178075 62.18345004 223.40350342 55.13009644 C223.37445419 53.51142166 223.37445419 53.51142166 223.34481812 51.86004639 C223.2852265 48.42670499 223.23871831 44.99332969 223.19256592 41.55978394 C223.15436739 39.2264363 223.11531457 36.89310248 223.07537842 34.55978394 C222.97954175 28.85157362 222.8944348 23.1432795 222.81756592 17.43478394 C193.5679991 17.38918576 164.31843481 17.35377855 135.06883974 17.33265328 C131.61781286 17.33015178 128.16678605 17.32756314 124.71575928 17.32492065 C124.02870481 17.32439603 123.34165034 17.32387141 122.63377605 17.32333089 C111.50043324 17.31462176 100.36711104 17.29884899 89.23378047 17.28047834 C77.81499034 17.26179343 66.39621694 17.25081996 54.97741109 17.24660695 C48.56152627 17.24399395 42.14568821 17.23782994 35.72981834 17.22332382 C29.69626839 17.2097921 23.66278465 17.20555233 17.62922096 17.20856857 C15.40998602 17.20801643 13.19074896 17.20401284 10.9715271 17.19637299 C7.95094189 17.18648075 4.9306095 17.18879408 1.91001892 17.1942749 C1.02383934 17.18844922 0.13765975 17.18262354 -0.77537376 17.17662132 C-5.77566817 17.1886293 -5.77566817 17.1886293 -10.18243408 19.43478394 Z M239.81756592 29.43478394 C239.74342271 34.36435652 239.68896775 39.29360475 239.652771 44.22360229 C239.63768208 45.90074314 239.61720844 47.57784451 239.59124756 49.25485229 C239.55486781 51.66518897 239.53784106 54.07500412 239.52459717 56.48556519 C239.50911331 57.2356636 239.49362946 57.98576202 239.47767639 58.7585907 C239.47676583 61.57352983 239.53335157 63.8768205 240.82537842 66.41329956 C244.0734753 68.07874531 247.42389866 67.79919031 250.98553467 67.72775269 C252.17775383 67.72138542 252.17775383 67.72138542 253.39405823 67.71488953 C255.93140613 67.69810324 258.4679583 67.66045217 261.00506592 67.62228394 C262.72575757 67.60723698 264.44646167 67.5935486 266.16717529 67.58126831 C270.38427854 67.54820001 274.60078734 67.49641888 278.81756592 67.43478394 C274.88395043 62.72644561 270.79857581 58.25430915 266.44256592 53.93478394 C265.87167236 53.36582397 265.30077881 52.79686401 264.71258545 52.21066284 C261.213353 48.74712673 257.62826688 45.44704707 253.86834717 42.26681519 C250.57103242 39.32121401 247.49530625 36.15326713 244.40887451 32.98898315 C243.22893562 31.78715457 242.02536016 30.6086156 240.81756592 29.43478394 C240.48756592 29.43478394 240.15756592 29.43478394 239.81756592 29.43478394 Z " fill="#000000" transform="translate(115.18243408203125,29.565216064453125)"/>
<path d="M0 0 C0.98231714 -0.00297112 1.96463428 -0.00594224 2.9767186 -0.0090034 C6.28935307 -0.01771928 9.60195152 -0.01920108 12.91459656 -0.02069092 C15.28113381 -0.02531704 17.64767031 -0.03034142 20.01420593 -0.03573608 C26.45843126 -0.04888175 32.90264966 -0.05534568 39.34688592 -0.05974674 C43.36951533 -0.06250769 47.39214234 -0.06674479 51.41477013 -0.07125092 C62.54869212 -0.0834451 73.68261219 -0.09374394 84.81654072 -0.09712601 C85.88584011 -0.09745536 85.88584011 -0.09745536 86.9767415 -0.09779136 C88.04862496 -0.09811878 88.04862496 -0.09811878 89.14216262 -0.09845281 C90.59023305 -0.09889628 92.03830348 -0.09934284 93.4863739 -0.09979248 C94.20466951 -0.10001391 94.92296511 -0.10023534 95.66302725 -0.10046348 C107.30253208 -0.10441166 118.94197432 -0.12186558 130.58145497 -0.145152 C142.52690602 -0.16885795 154.47232565 -0.18132752 166.41780061 -0.18249393 C173.12660421 -0.18341114 179.83532627 -0.1891751 186.54410744 -0.20731354 C192.85350042 -0.2237468 199.16273837 -0.2259728 205.47214508 -0.21717453 C207.79052075 -0.21640161 210.10890459 -0.22078019 212.42725945 -0.23063278 C215.58727232 -0.24327674 218.74672984 -0.23751643 221.90673828 -0.22705078 C222.82852837 -0.23510719 223.75031847 -0.24316359 224.70004159 -0.25146413 C229.4872959 -0.21427183 232.78154136 -0.02626805 236.6438446 3.14044189 C238.21320054 6.27915377 237.99585563 8.67900011 237.6438446 12.14044189 C235.64856597 14.94778147 234.05750313 16.8264234 230.59532726 17.59548271 C228.01174173 17.77892098 225.47218535 17.79215928 222.88223267 17.75517273 C221.89256313 17.76085599 220.9028936 17.76653924 219.88323408 17.77239472 C216.56334657 17.78532503 213.24467166 17.76248326 209.92485046 17.73980713 C207.54639429 17.74167068 205.16793896 17.7457062 202.78948975 17.75175476 C196.99807752 17.7607078 191.20705895 17.74648332 185.41570037 17.7216165 C178.67225987 17.69368502 171.928893 17.6923435 165.18540425 17.69217349 C153.15446469 17.69098621 141.1236922 17.66601544 129.09281921 17.62750244 C117.41669205 17.59014921 105.74068639 17.56890632 94.0644989 17.565979 C92.98558235 17.56570479 92.98558235 17.56570479 91.88486951 17.56542503 C91.16683904 17.56524606 90.44880857 17.56506709 89.7090196 17.5648827 C88.26333137 17.56451728 86.81764314 17.56414491 85.37195492 17.56376553 C84.65900381 17.56358001 83.9460527 17.5633945 83.21149701 17.56320336 C72.08627456 17.5596335 60.9610709 17.54118313 49.83586754 17.52127228 C45.80281077 17.51424928 41.76975845 17.50946681 37.73669689 17.50631093 C30.74239371 17.50079104 23.74821116 17.48513008 16.75395775 17.45812416 C14.428722 17.45067011 12.10347259 17.44661133 9.77822495 17.4461441 C6.61152835 17.44489068 3.4451197 17.43137882 0.2784729 17.41459656 C-0.64807462 17.41701164 -1.57462215 17.41942673 -2.52924687 17.42191499 C-3.3771093 17.4148494 -4.22497172 17.40778381 -5.09852695 17.40050411 C-6.19489093 17.39757773 -6.19489093 17.39757773 -7.31340367 17.39459223 C-9.70173349 17.09744656 -11.29937496 16.37412186 -13.3561554 15.14044189 C-15.45294942 12.44456386 -15.35126361 11.0474979 -15.1686554 7.57794189 C-14.38103258 4.24569151 -14.05933927 3.08673428 -11.3561554 1.14044189 C-7.8764906 -0.5993905 -3.83099412 -0.00357518 0 0 Z " fill="#000000" transform="translate(147.3561553955078,262.85955810546875)"/>
<path d="M0 0 C0.85146382 -0.00445784 1.70292764 -0.00891569 2.5801934 -0.01350862 C3.52103062 -0.01332426 4.46186785 -0.01313989 5.43121529 -0.01294994 C6.42648865 -0.01662663 7.42176201 -0.02030332 8.44719517 -0.02409142 C11.80361886 -0.03516108 15.16001164 -0.03897762 18.51645088 -0.04278088 C20.91416714 -0.04904294 23.31188243 -0.05568951 25.70959663 -0.0626936 C32.91981572 -0.08194395 40.13003228 -0.09252439 47.34026927 -0.10142139 C50.73379686 -0.10580271 54.12732288 -0.11116987 57.52084923 -0.11641026 C68.7980301 -0.13342212 80.07521 -0.14791749 91.35240173 -0.155159 C94.27948063 -0.15706896 97.20655952 -0.15898928 100.13363838 -0.16094494 C101.22493302 -0.16167055 101.22493302 -0.16167055 102.33827402 -0.16241082 C114.13043738 -0.17071562 125.92249944 -0.19606026 137.71461855 -0.22852562 C149.81487602 -0.26156843 161.91508196 -0.27960518 174.01538479 -0.28280324 C180.81193518 -0.28497078 187.60833779 -0.29375496 194.40484428 -0.31926441 C200.79549574 -0.34319491 207.18595309 -0.34681459 213.57664299 -0.33650303 C215.92608206 -0.3360054 218.27553387 -0.34239222 220.62493324 -0.35605907 C223.8248449 -0.37363651 227.02378509 -0.36674143 230.22369576 -0.35352612 C231.62825942 -0.36997998 231.62825942 -0.36997998 233.06119812 -0.38676625 C239.33377968 -0.3239372 239.33377968 -0.3239372 242.50401688 2.01626778 C244.25069484 4.56682315 244.88051822 6.02954167 244.95443916 9.13422108 C242.67733073 14.77277529 242.67733073 14.77277529 239.95443916 16.13422108 C238.60855655 16.22922732 237.25810811 16.26337085 235.90887833 16.26564884 C234.63168259 16.27141056 234.63168259 16.27141056 233.32868493 16.27728868 C232.3878477 16.27642219 231.44701048 16.27555571 230.47766304 16.27466297 C228.984753 16.27911965 228.984753 16.27911965 227.46168315 16.28366637 C224.10525622 16.2923825 220.74886482 16.29386407 217.39242744 16.29535389 C214.99471141 16.29997997 212.59699612 16.30500434 210.19928169 16.31039906 C203.67041499 16.32354447 197.14155571 16.33000847 190.612679 16.33440971 C186.53779437 16.33717044 182.46291212 16.34140747 178.3880291 16.34591389 C167.11084644 16.35810752 155.8336657 16.36840681 144.55647659 16.37178898 C143.83445594 16.37200854 143.11243528 16.37222811 142.36853521 16.37245433 C141.28288131 16.37278175 141.28288131 16.37278175 140.175295 16.37311578 C138.70860998 16.37355925 137.24192496 16.37400581 135.77523994 16.37445545 C134.68394531 16.3747876 134.68394531 16.3747876 133.57060431 16.37512645 C121.77846093 16.3790756 109.9863793 16.39653273 98.19425978 16.41981497 C86.09400189 16.44351323 73.99377501 16.45599012 61.89349353 16.4571569 C55.09697284 16.45807449 48.30053261 16.46384804 41.50403404 16.48197651 C35.11340296 16.49896207 28.72288401 16.50064155 22.33223534 16.4918375 C19.9828011 16.49106397 17.63335883 16.49545115 15.28394508 16.50529575 C12.08417271 16.51792038 8.88495033 16.51219011 5.68518257 16.50171375 C4.74880679 16.50977016 3.81243101 16.51782656 2.84768021 16.5261271 C-3.37704401 16.47824458 -3.37704401 16.47824458 -6.59513855 14.82219028 C-8.95243112 12.0788256 -8.98450337 9.67555439 -9.04556084 6.13422108 C-6.84631087 1.31681639 -5.17195168 0.01252955 0 0 Z " fill="#000000" transform="translate(141.045560836792,312.86577892303467)"/>
<path d="M0 0 C0.85146382 -0.00445784 1.70292764 -0.00891569 2.5801934 -0.01350862 C3.52103062 -0.01332426 4.46186785 -0.01313989 5.43121529 -0.01294994 C6.42648865 -0.01662663 7.42176201 -0.02030332 8.44719517 -0.02409142 C11.80361886 -0.03516108 15.16001164 -0.03897762 18.51645088 -0.04278088 C20.91416714 -0.04904294 23.31188243 -0.05568951 25.70959663 -0.0626936 C32.91981572 -0.08194395 40.13003228 -0.09252439 47.34026927 -0.10142139 C50.73379686 -0.10580271 54.12732288 -0.11116987 57.52084923 -0.11641026 C68.7980301 -0.13342212 80.07521 -0.14791749 91.35240173 -0.155159 C94.27948063 -0.15706896 97.20655952 -0.15898928 100.13363838 -0.16094494 C101.22493302 -0.16167055 101.22493302 -0.16167055 102.33827402 -0.16241082 C114.13043738 -0.17071562 125.92249944 -0.19606026 137.71461855 -0.22852562 C149.81487602 -0.26156843 161.91508196 -0.27960518 174.01538479 -0.28280324 C180.81193518 -0.28497078 187.60833779 -0.29375496 194.40484428 -0.31926441 C200.79549574 -0.34319491 207.18595309 -0.34681459 213.57664299 -0.33650303 C215.92608206 -0.3360054 218.27553387 -0.34239222 220.62493324 -0.35605907 C223.8248449 -0.37363651 227.02378509 -0.36674143 230.22369576 -0.35352612 C231.62825942 -0.36997998 231.62825942 -0.36997998 233.06119812 -0.38676625 C239.33532981 -0.32392168 239.33532981 -0.32392168 242.5294075 2.03970528 C244.06864813 4.30208575 244.49679107 5.42369881 244.45443916 8.13422108 C244.46990791 9.12422108 244.46990791 9.12422108 244.48568916 10.13422108 C243.66595443 13.22028125 242.53652526 14.2220016 239.95443916 16.13422108 C236.72132811 16.74119275 233.51843564 16.66913384 230.23715401 16.63542652 C229.24017179 16.64096092 228.24318958 16.64649531 227.21599579 16.65219742 C223.86553806 16.66584228 220.5158203 16.65081346 217.16537666 16.63593006 C214.76736318 16.63971183 212.36935188 16.64521069 209.9713459 16.65230274 C204.1284035 16.66483914 198.28565806 16.65867295 192.44273806 16.64362716 C185.64005703 16.62677602 178.83742993 16.62997618 172.03473449 16.63372124 C159.89789966 16.63960135 147.76116854 16.62542237 135.62436104 16.60077381 C123.84437357 16.57685257 112.06452468 16.56976934 100.28451729 16.580266 C87.46037418 16.59167255 74.63629519 16.59360854 61.81215286 16.5791679 C60.44496982 16.57764205 59.07778677 16.57612169 57.71060371 16.5746069 C57.03790361 16.57384908 56.3652035 16.57309127 55.67211854 16.57231049 C50.92903719 16.56756562 46.18598444 16.56942053 41.44290352 16.57367229 C35.06042416 16.57911035 28.67809441 16.568368 22.29564857 16.54671764 C19.94944851 16.54114048 17.60322999 16.54069295 15.25702858 16.54567051 C12.06171169 16.55160066 8.86698769 16.53916143 5.67172432 16.52190113 C4.73671278 16.52791118 3.80170124 16.53392122 2.83835602 16.54011339 C-3.37684143 16.47879344 -3.37684143 16.47879344 -6.59429741 14.82092857 C-8.95348478 12.07900112 -8.98450583 9.67541138 -9.04556084 6.13422108 C-6.84631087 1.31681639 -5.17195168 0.01252955 0 0 Z " fill="#000000" transform="translate(141.045560836792,213.86577892303467)"/>
<path d="M0 0 C0.99955719 -0.00997513 1.99911438 -0.01995026 3.02896118 -0.03022766 C4.11946274 -0.03089233 5.20996429 -0.03155701 6.33351135 -0.03224182 C8.06335266 -0.0447271 8.06335266 -0.0447271 9.82814026 -0.0574646 C13.64580139 -0.08158899 17.46329181 -0.09033913 21.28102112 -0.09693909 C23.26163158 -0.10363747 25.24224205 -0.11033805 27.22285134 -0.117374 C33.45001196 -0.13883494 39.6771181 -0.1481785 45.90431213 -0.15138245 C52.32446077 -0.15501928 58.74413182 -0.18492768 65.16413444 -0.22678703 C70.68018779 -0.26148947 76.1960828 -0.27693085 81.71224457 -0.27762848 C85.00513271 -0.27842119 88.2974236 -0.28952359 91.59022331 -0.31562614 C95.26289084 -0.34242594 98.93423409 -0.337748 102.60694885 -0.32521057 C103.69542618 -0.34004486 104.7839035 -0.35487915 105.90536499 -0.37016296 C113.24728685 -0.29864906 113.24728685 -0.29864906 117.21792603 2.58895874 C119.59249951 6.09814439 119.63982108 8.1155104 119.03492737 12.27415466 C117.27477606 15.45919036 116.53601821 16.10712438 113.03492737 17.27415466 C111.43487222 17.371861 109.83108893 17.41336848 108.22807312 17.42132568 C107.23830475 17.42848099 106.24853638 17.43563629 105.22877502 17.44300842 C103.60165588 17.44704178 103.60165588 17.44704178 101.94166565 17.45115662 C100.79833771 17.45772781 99.65500977 17.46429901 98.47703552 17.47106934 C94.68643634 17.49081105 90.89587675 17.50246552 87.10523987 17.51243591 C85.81238949 17.51651144 84.51953911 17.52058697 83.18751144 17.524786 C77.0531219 17.54349669 70.91875224 17.55806336 64.78434002 17.56639796 C57.70605576 17.57617429 50.62808389 17.60250728 43.54990971 17.64289886 C37.4165836 17.6766966 31.2833889 17.68854273 25.14997482 17.69260216 C22.54162855 17.69748233 19.93328597 17.70913666 17.32500076 17.72764015 C13.67873789 17.75190398 10.03329649 17.75108967 6.38697815 17.74412537 C5.30628052 17.75693542 4.22558289 17.76974548 3.11213684 17.78294373 C-1.37287893 17.75165693 -4.17426892 17.72857824 -8.11598206 15.46353149 C-10.67114396 12.43814575 -10.89515825 10.1893599 -10.96507263 6.27415466 C-10.16787799 3.59268176 -9.56987129 2.64567225 -7.19335842 1.18582058 C-4.63424851 0.1388035 -2.76080456 0.01480245 0 0 Z " fill="#000000" transform="translate(142.96507263183594,361.72584533691406)"/>
<path d="M0 0 C0.98135422 -0.00571014 1.96270844 -0.01142029 2.97380066 -0.01730347 C4.04919601 -0.01842133 5.12459137 -0.01953918 6.23257446 -0.02069092 C7.36614883 -0.02565582 8.49972321 -0.03062073 9.66764832 -0.03573608 C13.42578737 -0.05036741 17.18388423 -0.05716099 20.94204712 -0.06268311 C23.54895021 -0.0684333 26.15585329 -0.07419105 28.76275635 -0.07995605 C33.53268373 -0.08952595 38.30260198 -0.0954238 43.07253778 -0.09845281 C50.09020533 -0.10293387 57.10767813 -0.12048563 64.12528646 -0.1494534 C70.20628385 -0.17368262 76.28720087 -0.18139748 82.36824417 -0.18312836 C84.95425095 -0.18615916 87.54025683 -0.19420198 90.12623215 -0.20731354 C93.74125752 -0.2243357 97.35580672 -0.22250297 100.97085571 -0.21600342 C102.04220261 -0.2252182 103.1135495 -0.23443298 104.21736145 -0.243927 C113.36600355 -0.19230542 113.36600355 -0.19230542 117.23110962 3.14044189 C118.80046556 6.27915377 118.58312065 8.67900011 118.23110962 12.14044189 C116.42192078 14.83345032 116.42192078 14.83345032 113.23110962 17.14044189 C109.42349993 17.87379886 105.67025336 17.79251012 101.8031311 17.73980713 C100.64815125 17.74374985 99.49317139 17.74769257 98.30319214 17.75175476 C94.48575465 17.75846721 90.66951286 17.72929607 86.85220337 17.69903564 C84.20090411 17.69478586 81.54965805 17.69230614 78.89836121 17.69197083 C73.34253747 17.68734613 67.78705696 17.66372643 62.23135376 17.62750244 C55.8107439 17.58575022 49.39044288 17.56818622 42.96970505 17.5648827 C36.78828752 17.56162853 30.60696321 17.54684785 24.42558479 17.52488899 C21.79690242 17.51599884 19.16821183 17.50927271 16.53951836 17.50472832 C12.86943596 17.49570299 9.1996862 17.47332686 5.5296936 17.44683838 C4.43919205 17.44617371 3.34869049 17.44550903 2.22514343 17.44482422 C1.22558624 17.43484909 0.22602905 17.42487396 -0.80381775 17.41459656 C-1.6711834 17.40994605 -2.53854906 17.40529554 -3.43219852 17.40050411 C-5.98234371 17.1166856 -7.59167002 16.47787155 -9.76889038 15.14044189 C-11.86568441 12.44456386 -11.76399859 11.0474979 -11.58139038 7.57794189 C-10.50802082 3.03676296 -10.50802082 3.03676296 -7.76889038 1.14044189 C-4.86724488 0.17322673 -3.01804573 0.01051817 0 0 Z " fill="#000000" transform="translate(143.76889038085938,163.85955810546875)"/>
</svg>
